<?xml version="1.0" encoding="utf-8"?>
<!-- Generator: Adobe Illustrator 24.1.0, SVG Export Plug-In . SVG Version: 6.00 Build 0)  -->
<svg version="1.1" id="Warstwa_1" xmlns="http://www.w3.org/2000/svg" xmlns:xlink="http://www.w3.org/1999/xlink" x="0px" y="0px"
	 viewBox="0 0 400.2 89.8" style="enable-background:new 0 0 400.2 89.8;" xml:space="preserve">
<style type="text/css">
	.st0{fill:#FFFFFF;}
	.st1{fill:#00CA42;}
	.st2{fill:#26AEF9;}
	.st3{fill:#ADABA9;}
</style>
<g>
	<g>
		<g>
			<polygon class="st0" points="267.9,82.9 281.4,82.9 281.4,79.3 272.1,79.3 272.1,73.6 280.7,73.6 280.7,69.9 272.1,69.9 
				272.1,64.5 281.4,64.5 281.4,60.9 267.9,60.9 			"/>
			<path class="st0" d="M295.1,60.5c-6.2,0-8.4,3.1-8.4,6.8v9.1c0,3.7,2.1,6.8,8.4,6.8c6.2,0,8.3-3.1,8.3-6.8v-9.1
				C303.4,63.6,301.3,60.5,295.1,60.5z M299.3,76.2c0,2.1-1.1,3.3-4.2,3.3c-3.1,0-4.2-1.3-4.2-3.3v-8.7c0-2.1,1.1-3.3,4.2-3.3
				c3.1,0,4.2,1.3,4.2,3.3V76.2z"/>
			<path class="st0" d="M317.8,60.9h-8.2v22.1h8.2c5.4,0,7.3-2.8,7.3-5.9V66.8C325.1,63.6,323.2,60.9,317.8,60.9z M320.9,76
				c0,2.1-0.8,3.2-3.6,3.2h-3.6V64.5h3.6c2.8,0,3.6,1.1,3.6,3.2V76z"/>
			<polygon class="st0" points="331.2,82.9 344.8,82.9 344.8,79.3 335.4,79.3 335.4,73.6 344,73.6 344,69.9 335.4,69.9 335.4,64.5 
				344.8,64.5 344.8,60.9 331.2,60.9 			"/>
			<polygon class="st0" points="365.2,64.4 365.2,60.9 350.8,60.9 350.8,64.4 360.6,64.4 350.4,79.4 350.4,82.9 365.3,82.9 
				365.3,79.4 355.1,79.4 			"/>
			<path class="st0" d="M371.4,82.9c0,1.4-0.3,1.6-2.8,4l2.5,2.8c3.6-3,4.5-4.2,4.5-6.5V60.9h-4.2V82.9z"/>
			<path class="st0" d="M393.2,60.9h-5.8l-7,22.1h4.4l1.4-4.6h8.2l1.4,4.6h4.4L393.2,60.9z M387.2,74.7l3.1-10.4l3,10.4H387.2z"/>
			<path class="st0" d="M256.4,75.4h1.4v3.9c-1.1,0.2-2.3,0.3-3.4,0.3c-2.9,0-3.8-1.3-3.8-3.4v-8.4c0-2.3,1-3.4,3.9-3.4
				c2.1,0,4.2,0.2,6.2,0.6l0.5-3.6c-2-0.5-4.5-0.7-6.3-0.7c-5.7,0-8.4,2.1-8.4,6.7v9.4c0,4.4,2.6,6.7,8,6.7c2.3,0,5.1-0.3,7.4-1
				v-6.9v-2.8v-0.8h-5.4V75.4z"/>
		</g>
	</g>
	<g>
		<path class="st0" d="M111,46.7V28.9H96.7v17.7h-9.9V2.6h9.9v17.5H111V2.6h9.9v44.1H111z"/>
		<path class="st0" d="M162.6,33.8c0,6.7-4.6,13.5-17.1,13.5c-12.4,0-17.1-6.8-17.1-13.5V15.4c0-6.7,4.6-13.5,17.1-13.5
			c12.4,0,17.1,6.8,17.1,13.5V33.8z M152.7,16.3c0-3.4-2.2-5.6-7.1-5.6c-5,0-7.1,2.1-7.1,5.6V33c0,3.4,2.2,5.6,7.1,5.6
			c5,0,7.1-2.1,7.1-5.6V16.3z"/>
		<path class="st0" d="M187.2,33h-7.1v13.7h-9.9V2.6h18.3c10.7,0,14.7,4.2,14.7,12.5v5.4c0,5.5-2,9.2-6.4,11l7.3,15.1h-10.5
			L187.2,33z M193.3,16c0-3.3-1.3-4.6-5.3-4.6h-7.9v13h7.9c4.2,0,5.3-1.5,5.3-4.8V16z"/>
		<path class="st0" d="M229.4,33.9v12.7h-9.9V33.9L205.8,2.6h10.4l8.3,20.4l8.3-20.4h10.4L229.4,33.9z"/>
		<path class="st0" d="M257.7,38.5h19.5v8.1h-30.8v-8.1l19.4-27.9h-18.5V2.6h29.6v8.1L257.7,38.5z"/>
		<path class="st0" d="M317,33.8c0,6.7-4.6,13.5-17.1,13.5s-17.1-6.8-17.1-13.5V15.4c0-6.7,4.6-13.5,17.1-13.5S317,8.7,317,15.4
			V33.8z M307.1,16.3c0-3.4-2.2-5.6-7.1-5.6s-7.1,2.1-7.1,5.6V33c0,3.4,2.2,5.6,7.1,5.6s7.1-2.1,7.1-5.6V16.3z"/>
		<path class="st0" d="M334,17.7v29h-9.5V2.6h12.2L351.2,33V2.6h9.5v44.1h-12.2L334,17.7z"/>
		<path class="st0" d="M387.6,11.4v35.3h-9.9V11.4h-11.8V2.6h33.6v8.8H387.6z"/>
	</g>
</g>
<polygon class="st1" points="0,35.9 0,50.7 73.1,29.3 73.1,14.5 "/>
<polygon class="st2" points="43.6,0 4.1,11.6 4.1,26.3 43.6,14.8 "/>
<polygon class="st3" points="68.9,38.8 29.4,50.4 29.4,65.2 68.9,53.6 "/>
</svg>
