<?xml version="1.0" encoding="utf-8"?>
<!-- Generator: Adobe Illustrator 24.1.0, SVG Export Plug-In . SVG Version: 6.00 Build 0)  -->
<svg version="1.1" id="Warstwa_1" xmlns="http://www.w3.org/2000/svg" xmlns:xlink="http://www.w3.org/1999/xlink" x="0px" y="0px"
	 viewBox="0 0 150 150" style="enable-background:new 0 0 150 150;" xml:space="preserve">
<style type="text/css">
	.st0{fill:#CBEED6;}
	.st1{fill:#19B432;}
</style>
<g>
	<rect x="23.1" y="57.5" class="st0" width="11.2" height="8.4"/>
	<rect x="115.6" y="57.6" class="st0" width="11.2" height="8.4"/>
	<rect x="54.9" y="63.8" class="st0" width="40.1" height="10.9"/>
	<path class="st1" d="M146.5,53.9h-18.6v-0.1c0-3.7-3-6.8-6.8-6.8s-6.8,3-6.8,6.8v0.1H95.8c-1.2,0-2.2,1-2.2,2.2s1,2.2,2.2,2.2H112
		v2.5c0,0,0,0.1,0,0.1H98.1c0,0,0,0,0,0H51.9c0,0,0,0,0,0H37.9c0,0,0-0.1,0-0.1v-2.5h16.3c1.2,0,2.2-1,2.2-2.2s-1-2.2-2.2-2.2H35.6
		v-0.1c0-3.7-3-6.8-6.8-6.8s-6.8,3-6.8,6.8v0.1H3.5c-1.2,0-2.2,1-2.2,2.2s1,2.2,2.2,2.2h16.3v2.5c0,5,4.1,9.1,9.1,9.1
		c3.4,0,6.3-1.9,7.9-4.6h13.6l2,6.1c1.6,4.7,5.9,7.8,10.8,7.8h9.6v5.3c-2.7,0.9-4.6,3.4-4.6,6.4c0,3.7,3,6.8,6.8,6.8s6.8-3,6.8-6.8
		c0-3-1.9-5.5-4.6-6.4V79h9.6c4.9,0,9.3-3.1,10.8-7.8l2-6.1h13.6c1.6,2.8,4.5,4.6,7.9,4.6c5,0,9.1-4.1,9.1-9.1v-2.5h16.3
		c1.2,0,2.2-1,2.2-2.2S147.7,53.9,146.5,53.9z M26.4,53.8c0-1.4,1.1-2.5,2.5-2.5c1.4,0,2.5,1.1,2.5,2.5v0.1h-4.9V53.8z M28.9,65.4
		c-2.6,0-4.8-2.1-4.8-4.8v-2.5h9.5v2.5C33.6,63.3,31.5,65.4,28.9,65.4z M75,93.1c-1.4,0-2.5-1.1-2.5-2.5c0-1.4,1.1-2.5,2.5-2.5
		c1.4,0,2.5,1.1,2.5,2.5C77.5,92,76.4,93.1,75,93.1z M93.5,69.8c-1,2.9-3.7,4.8-6.7,4.8H63.2c-3,0-5.7-1.9-6.7-4.8l-1.6-4.7h40.1
		L93.5,69.8z M118.7,53.8c0-1.4,1.1-2.5,2.5-2.5s2.5,1.1,2.5,2.5v0.1h-4.9V53.8z M125.9,60.7c0,2.6-2.1,4.8-4.8,4.8
		s-4.8-2.1-4.8-4.8v-2.5h9.5V60.7z"/>
	<path class="st0" d="M89,108.9c1-1,1-2.7,0-3.8c-1-1-2.7-1-3.8,0c-5.6,5.6-14.8,5.6-20.5,0c-1-1-2.7-1-3.8,0c-1,1-1,2.7,0,3.8
		c3.9,3.9,8.9,5.8,14,5.8C80.1,114.7,85.2,112.8,89,108.9z"/>
	<path class="st0" d="M52.9,113.2c-1,1-1,2.7,0,3.8c5.9,5.9,13.8,9.2,22.1,9.2s16.2-3.3,22.1-9.2c1-1,1-2.7,0-3.8c-1-1-2.7-1-3.8,0
		c-4.9,4.9-11.4,7.6-18.3,7.6c-6.9,0-13.4-2.7-18.3-7.6C55.6,112.2,53.9,112.2,52.9,113.2z"/>
	<path class="st0" d="M101.4,121.3c-14.6,14.6-38.2,14.6-52.8,0c-1-1-2.7-1-3.8,0c-1,1-1,2.7,0,3.8c8.3,8.3,19.3,12.5,30.2,12.5
		s21.9-4.2,30.2-12.5c1-1,1-2.7,0-3.8C104.1,120.3,102.5,120.3,101.4,121.3z"/>
</g>
</svg>
