<?xml version="1.0" encoding="utf-8"?>
<!-- Generator: Adobe Illustrator 24.1.0, SVG Export Plug-In . SVG Version: 6.00 Build 0)  -->
<svg version="1.1" id="Warstwa_1" xmlns="http://www.w3.org/2000/svg" xmlns:xlink="http://www.w3.org/1999/xlink" x="0px" y="0px"
	 viewBox="0 0 150 150" style="enable-background:new 0 0 150 150;" xml:space="preserve">
<style type="text/css">
	.st0{fill:#CBEED6;}
	.st1{fill:#19B432;}
</style>
<g>
	<path class="st0" d="M47.3,53.6c0.2-3.3,0.1-7,1.5-10.1c1.8-4.2,5.9-6.2,10-7.5c-3.3-4.6-8.6-7.5-14.7-7.5
		c-10,0-18.2,8.1-18.2,18.2c0,3.3,0.9,6.4,2.4,9.1L5.3,111.3l9.6,4l21.7-52.1c2.3,1.1,4.9,1.7,7.6,1.7c1,0,2-0.1,2.9-0.3
		C47.1,60.9,47.1,57.3,47.3,53.6z"/>
	<path class="st1" d="M133.2,34H60.3c0,0-0.1,0-0.1,0c-2.2-2.8-5.1-5-8.5-6.4V16.5c0-4.1-3.4-7.5-7.5-7.5c-4.1,0-7.5,3.4-7.5,7.5
		v11.1c-7.7,3.1-12.9,10.6-12.9,19c0,3.1,0.7,6.1,2.1,8.9L4.3,106.6c-1.9,4.3,0.2,9.4,4.5,11.2l2,0.8l-4.1,9.9
		c-0.4,1.1,0.1,2.4,1.1,2.8c0.3,0.1,0.5,0.2,0.8,0.2c0.8,0,1.7-0.5,2-1.3l5-11.9l10.8-25.7h11.3v8.9c0,3.6,2.9,6.4,6.4,6.4
		c3.6,0,6.4-2.9,6.4-6.4v-3.1c2.5,2.5,6,4,9.8,4h45.3l20.4,17.3c0.4,0.3,0.8,0.5,1.3,0.5c0.3,0,0.6-0.1,0.9-0.2
		c0.7-0.3,1.2-1.1,1.2-1.9v-15.8h3.7c7.7,0,14-6.3,14-14.1V48.1C147.2,40.4,140.9,34,133.2,34z M41,16.5c0-1.8,1.4-3.2,3.2-3.2
		s3.2,1.4,3.2,3.2v9.9C45.2,26,43,26,41,26.4V16.5z M44.1,30.5c4.3,0,8.2,1.7,11.1,4.5c-2.1,0.8-3.9,2.1-5.4,3.8
		c-1.6-1.2-3.6-1.9-5.7-1.9c-5.4,0-9.7,4.3-9.7,9.7s4.3,9.7,9.7,9.7c0.7,0,1.5-0.1,2.2-0.3v6.5c-0.7,0.1-1.4,0.2-2.2,0.2
		c-8.9,0-16.1-7.2-16.1-16.1S35.3,30.5,44.1,30.5z M46.3,51.5c-0.7,0.3-1.4,0.5-2.2,0.5c-3,0-5.4-2.4-5.4-5.4s2.4-5.4,5.4-5.4
		c1.3,0,2.4,0.5,3.4,1.2c-0.8,1.7-1.2,3.6-1.2,5.7V51.5z M12.5,114.6l-2-0.8c-1-0.4-1.9-1.2-2.3-2.4c-0.5-1-0.5-2.2,0-3.2l20.3-48.4
		c1.4,1.8,3.2,3.2,5.2,4.3L12.5,114.6z M37.9,80v8.4h-9.5l9.3-22.4c2.8,1,5.8,1.3,8.7,0.9v7c-0.6-0.2-1.3-0.3-2.1-0.3
		C40.6,73.6,37.9,76.5,37.9,80z M46.3,101.4c0,1.2-0.9,2.2-2.2,2.2s-2.2-0.9-2.2-2.2V80c0-1.2,0.9-2.2,2.2-2.2s2.2,0.9,2.2,2.2v8.4
		V101.4z M143.1,88.4c0,5.5-4.5,10-9.9,10h-5.8c-1.1,0-2,0.9-2,2.1v13.4l-17.6-15c-0.4-0.3-0.8-0.5-1.3-0.5h-46
		c-5.5,0-9.9-4.5-9.9-10V48.1c0-5.5,4.5-10,9.9-10h72.8c5.5,0,9.9,4.5,9.9,10V88.4z"/>
	<path class="st1" d="M129.7,53H63.8c-1.1,0-2,0.9-2,2.1c0,1.1,0.9,2.1,2,2.1h65.9c1.1,0,2-0.9,2-2.1C131.8,53.9,130.8,53,129.7,53z
		"/>
	<path class="st1" d="M129.7,66.1H63.8c-1.1,0-2,0.9-2,2.1c0,1.1,0.9,2.1,2,2.1h65.9c1.1,0,2-0.9,2-2.1
		C131.8,67.1,130.8,66.1,129.7,66.1z"/>
	<path class="st1" d="M129.7,79.3H63.8c-1.1,0-2,0.9-2,2.1c0,1.1,0.9,2.1,2,2.1h65.9c1.1,0,2-0.9,2-2.1
		C131.8,80.2,130.8,79.3,129.7,79.3z"/>
</g>
</svg>
