<?xml version="1.0" encoding="utf-8"?>
<!-- Generator: Adobe Illustrator 24.1.0, SVG Export Plug-In . SVG Version: 6.00 Build 0)  -->
<svg version="1.1" id="Warstwa_1" xmlns="http://www.w3.org/2000/svg" xmlns:xlink="http://www.w3.org/1999/xlink" x="0px" y="0px"
	 viewBox="0 0 150 150" style="enable-background:new 0 0 150 150;" xml:space="preserve">
<style type="text/css">
	.st0{fill:#CBEED6;}
	.st1{fill:#19B432;}
</style>
<g>
	<path class="st0" d="M93.5,39.4H56.2v40.1h37.4V39.4z M75,69.4c-5.5,0-10-4.5-10-10c0-5.5,4.5-10,10-10s10,4.5,10,10
		C85,64.9,80.5,69.4,75,69.4z"/>
	<path class="st0" d="M104,93.3H45.1l-1.7,3.6v24.8h62.4V95L104,93.3z M69.8,112.9H53.6v-11.1h16.3V112.9z"/>
</g>
<g id="Page-1">
	<g id="_x30_08---Surveying-Equipment">
		<path id="Shape" class="st1" d="M30.5,115.1h2.2v4.5c0,2.5,2,4.5,4.5,4.5h5.8l5,5c-0.8,0.3-1.5,0.8-2.1,1.4c-1.3,1.2-2,3-2,4.7
			c0,3.7,3,6.7,6.7,6.7h49c3.7,0,6.7-3,6.7-6.7c0-2.7-1.6-5.1-4.1-6.1l5-5h5.8c2.5,0,4.5-2,4.5-4.5v-69h2.2c3.7,0,6.7-3,6.7-6.7
			v-4.5c0-3.7-3-6.7-6.7-6.7h-2.2V31c0-2.4-0.9-4.6-2.6-6.3l-13.9-13.9c-1.7-1.7-3.9-2.6-6.3-2.6h-39c-2.4,0-4.6,0.9-6.3,2.6
			L35.3,24.7c-1.7,1.7-2.6,3.9-2.6,6.3v66.3h-2.2c-3.7,0-6.7,3-6.7,6.7v4.5C23.8,112.1,26.8,115.1,30.5,115.1L30.5,115.1z
			 M57.2,43.8c0-2.5,2-4.5,4.5-4.5h26.7c2.5,0,4.5,2,4.5,4.5V75c0,2.5-2,4.5-4.5,4.5H61.6c-2.5,0-4.5-2-4.5-4.5V43.8z M88.4,34.9
			H61.6c-2.7,0-5.2,1.2-6.9,3.3l-4-4c-0.9-0.9-0.9-2.3,0-3.1l8.9-8.9c0.4-0.4,1-0.7,1.6-0.7h27.5c0.6,0,1.2,0.2,1.6,0.7l8.9,8.9
			c0.9,0.9,0.9,2.3,0,3.1l-4,4C93.6,36.1,91,34.9,88.4,34.9L88.4,34.9z M57.2,82.7c1.3,0.8,2.9,1.2,4.5,1.2h26.7
			c1.6,0,3.1-0.4,4.5-1.2v7.9H57.2V82.7z M55,95h46.8c1.2,0,2.2,1,2.2,2.2v22.3H46V97.3c0-1.2,1-2.2,2.2-2.2H55z M101,136.7
			c-0.4,0.4-1,0.6-1.5,0.6h-49c-1.2,0-2.2-1-2.2-2.2c0-0.6,0.2-1.2,0.7-1.6c0.4-0.4,1-0.6,1.5-0.6h8.9c1.2,0,2.2-1,2.2-2.2
			c0-1.2-1-2.2-2.2-2.2h-5.8l-4.5-4.5h51.6l-4.5,4.5H70.5c-1.2,0-2.2,1-2.2,2.2c0,1.2,1,2.2,2.2,2.2h29c1.2,0,2.2,1,2.2,2.2
			C101.7,135.7,101.5,136.3,101,136.7z M119.5,37.1c1.2,0,2.2,1,2.2,2.2v4.5c0,1.2-1,2.2-2.2,2.2h-2.2v-8.9H119.5z M37.1,31
			c0-1.2,0.5-2.3,1.3-3.2l13.9-13.9c0.8-0.8,2-1.3,3.1-1.3h39c1.2,0,2.3,0.5,3.1,1.3l13.9,13.9c0.8,0.8,1.3,2,1.3,3.2l0,88.6h-4.5
			V97.3c0-3.7-3-6.7-6.7-6.7h-4.5V42.5l5.1-5.1c1.3-1.3,2-3,2-4.7c0-1.8-0.7-3.5-2-4.7L93.5,19c-1.2-1.3-3-2-4.7-2H61.3
			c-1.8,0-3.5,0.7-4.7,2L47.6,28c-1.3,1.3-2,3-2,4.7c0,1.8,0.7,3.5,2,4.7l5.1,5.1v48.1h-4.5c-3.7,0-6.7,3-6.7,6.7v22.3h-4.5L37.1,31
			z M28.2,104c0-1.2,1-2.2,2.2-2.2h2.2v8.9h-2.2c-1.2,0-2.2-1-2.2-2.2V104z"/>
		<path id="Shape_1_" class="st1" d="M75,72.8c7.4,0,13.4-6,13.4-13.4S82.4,46,75,46s-13.4,6-13.4,13.4C61.6,66.8,67.6,72.8,75,72.8
			z M75,50.5c4.9,0,8.9,4,8.9,8.9s-4,8.9-8.9,8.9s-8.9-4-8.9-8.9S70.1,50.5,75,50.5z"/>
		<path id="Shape_2_" class="st1" d="M55,115.1h13.4c2.5,0,4.5-2,4.5-4.5V104c0-2.5-2-4.5-4.5-4.5H55c-2.5,0-4.5,2-4.5,4.5v6.7
			C50.5,113.1,52.5,115.1,55,115.1z M55,104h13.4v6.7H55V104z"/>
		<circle id="Oval" class="st1" cx="79.5" cy="104" r="2.2"/>
		<circle id="Oval_1_" class="st1" cx="88.4" cy="104" r="2.2"/>
		<circle id="Oval_2_" class="st1" cx="97.3" cy="104" r="2.2"/>
		<circle id="Oval_3_" class="st1" cx="79.5" cy="112.9" r="2.2"/>
		<circle id="Oval_4_" class="st1" cx="88.4" cy="112.9" r="2.2"/>
		<circle id="Oval_5_" class="st1" cx="97.3" cy="112.9" r="2.2"/>
	</g>
</g>
</svg>
