<?xml version="1.0" encoding="utf-8"?>
<!-- Generator: Adobe Illustrator 24.1.0, SVG Export Plug-In . SVG Version: 6.00 Build 0)  -->
<svg version="1.1" id="Warstwa_1" xmlns="http://www.w3.org/2000/svg" xmlns:xlink="http://www.w3.org/1999/xlink" x="0px" y="0px"
	 viewBox="0 0 150 150" style="enable-background:new 0 0 150 150;" xml:space="preserve">
<style type="text/css">
	.st0{fill:#CBEED6;}
	.st1{fill:#19B432;}
</style>
<rect x="123.4" y="68.5" class="st0" width="9.7" height="34.7"/>
<g>
	<polygon class="st0" points="145.3,55.6 145.3,60.1 99.9,60.1 99,42.4 91.6,35.7 102.2,29.2 	"/>
	<rect x="101.3" y="68.5" class="st0" width="4.4" height="34.7"/>
	<g>
		<path class="st1" d="M20.4,67.1h39.4c1.1,0,2.1-0.9,2.1-2.1s-0.9-2.1-2.1-2.1H20.4c-1.1,0-2.1,0.9-2.1,2.1S19.2,67.1,20.4,67.1z"
			/>
		<path class="st1" d="M20.4,55.6h39.4c1.1,0,2.1-0.9,2.1-2.1s-0.9-2.1-2.1-2.1H20.4c-1.1,0-2.1,0.9-2.1,2.1S19.2,55.6,20.4,55.6z"
			/>
		<path class="st1" d="M20.4,43.9h18.7c1.1,0,2.1-0.9,2.1-2.1s-0.9-2.1-2.1-2.1H20.4c-1.1,0-2.1,0.9-2.1,2.1S19.2,43.9,20.4,43.9z"
			/>
		<path class="st1" d="M45.3,81.6H20.4c-1.1,0-2.1,0.9-2.1,2.1s0.9,2.1,2.1,2.1h24.9h14.6h24.9c1.1,0,2.1-0.9,2.1-2.1
			s-0.9-2.1-2.1-2.1H59.8H45.3z"/>
		<path class="st1" d="M20.4,98.1h14.5h24.9h14.5c1.1,0,2.1-0.9,2.1-2.1c0-1.1-0.9-2.1-2.1-2.1H59.8H34.9H20.4
			c-1.1,0-2.1,0.9-2.1,2.1C18.3,97.2,19.2,98.1,20.4,98.1z"/>
		<path class="st1" d="M79.3,106.4H59.8h-20H20.4c-1.1,0-2.1,0.9-2.1,2.1s0.9,2.1,2.1,2.1h19.5h20h19.5c1.1,0,2.1-0.9,2.1-2.1
			S80.4,106.4,79.3,106.4z"/>
	</g>
	<g>
		<path class="st1" d="M123.3,66c-1.1,0-2.1,0.9-2.1,2.1v35.1c0,1.1,0.9,2.1,2.1,2.1h10.2c1.1,0,2.1-0.9,2.1-2.1V68.1
			c0-1.1-0.9-2.1-2.1-2.1H123.3z M131.5,101.1h-6.1V70.2h6.1V101.1z"/>
		<path class="st1" d="M144.9,115.6h-43.6v-2.5v-0.3H140c1.1,0,2.1-0.9,2.1-2.1c0-1.1-0.9-2.1-2.1-2.1h-38.7v-3.4h3.7
			c1.1,0,2.1-0.9,2.1-2.1V68.2c0-1.1-0.9-2.1-2.1-2.1h-3.7v-3.6h43.6c1.1,0,2.1-0.9,2.1-2.1v-6.2c0-0.7-0.4-1.4-1-1.8l-42.9-25.6
			c-0.6-0.4-1.4-0.4-2.1,0l-9.1,5.4L72.2,13.8c-0.8-0.7-1.8-1.1-2.8-1.1H12.1c-2.3,0-4.2,1.9-4.2,4.2v96.3v8v3.9
			c0,2.3,1.9,4.2,4.2,4.2h85.1c2.3,0,4.2-1.9,4.2-4.2v-3.9v-1.4h43.6c1.1,0,2.1-0.9,2.1-2.1S146,115.6,144.9,115.6z M103,70.2v30.9
			h-1.7V70.2H103z M102,30.9l40.8,24.4v3h-41.5V42.7c0-0.6-0.1-1.2-0.4-1.7c0,0,0,0,0-0.1c-0.2-0.5-0.5-0.9-0.9-1.3l-4.9-4.6
			L102,30.9z M72.3,19.6L94,39.7H72.3V19.6z M97.2,113.1v8v3.9H12.1v-3.9v-8V16.9h56v22.8c0,2.3,1.9,4.2,4.2,4.2h24.9V113.1z"/>
	</g>
</g>
</svg>
