<?xml version="1.0" encoding="utf-8"?>
<!-- Generator: Adobe Illustrator 24.1.0, SVG Export Plug-In . SVG Version: 6.00 Build 0)  -->
<svg version="1.1" id="Warstwa_1" xmlns="http://www.w3.org/2000/svg" xmlns:xlink="http://www.w3.org/1999/xlink" x="0px" y="0px"
	 viewBox="0 0 150 150" style="enable-background:new 0 0 150 150;" xml:space="preserve">
<style type="text/css">
	.st0{fill:#CBEED6;}
	.st1{fill:#19B432;}
</style>
<rect x="104" y="31.4" class="st0" width="17.5" height="99.8"/>
<g id="_x30_04---Measuring-Calculations">
	<path id="Shape_10_" class="st1" d="M36.5,53c0,3,0.7,5.9,2,8.6l-20.8,49.5c-1.8,4.2,0.2,9.1,4.4,10.9l1.9,0.8l-4,9.6
		c-0.4,1.1,0.1,2.3,1.1,2.7c0.3,0.1,0.5,0.2,0.8,0.2c0.8,0,1.6-0.5,1.9-1.3l4.8-11.5l10.5-24.9h11v8.6c0,3.5,2.8,6.2,6.2,6.2
		c3.5,0,6.2-2.8,6.2-6.2v-8.6h11l10.5,24.9l4.8,11.5c0.3,0.8,1.1,1.3,1.9,1.3c0.3,0,0.5-0.1,0.8-0.2c1.1-0.4,1.6-1.7,1.1-2.7l-4-9.6
		l1.9-0.8c4.2-1.8,6.2-6.7,4.4-10.9L74.2,61.4c2.3-4.9,2.5-10.6,0.5-15.7s-6-9.1-11.1-11.1V23.8c0-4-3.3-7.3-7.3-7.3
		S49,19.8,49,23.8v10.8C41.5,37.6,36.5,44.9,36.5,53L36.5,53z M21.5,112.7l19.7-46.9c1.4,1.7,3.1,3.1,5,4.2l-20.6,48.9l-1.9-0.8
		c-1-0.4-1.8-1.2-2.2-2.3C21,114.8,21,113.7,21.5,112.7L21.5,112.7z M58.4,106.1c0,1.2-0.9,2.1-2.1,2.1c-1.2,0-2.1-0.9-2.1-2.1V85.3
		c0-1.2,0.9-2.1,2.1-2.1c1.2,0,2.1,0.9,2.1,2.1V106.1z M62.6,93.4v-8.1c0-3.5-2.8-6.2-6.2-6.2c-3.5,0-6.2,2.8-6.2,6.2v8.1h-9.2
		L50,71.7c4.1,1.4,8.6,1.4,12.7,0l9.1,21.7H62.6z M91.2,112.7c0.9,2.1-0.1,4.6-2.2,5.5l-1.9,0.8l-20.6-49c1.9-1.1,3.6-2.6,5-4.2
		L91.2,112.7z M53.2,23.8c0-1.7,1.4-3.1,3.1-3.1s3.1,1.4,3.1,3.1v9.6c-2.1-0.4-4.2-0.4-6.2,0V23.8z M56.3,37.4
		c8.6,0,15.6,7,15.6,15.6s-7,15.6-15.6,15.6s-15.6-7-15.6-15.6C40.7,44.4,47.7,37.4,56.3,37.4z"/>
	<path id="Shape_11_" class="st1" d="M56.3,62.4c5.2,0,9.4-4.2,9.4-9.4s-4.2-9.4-9.4-9.4s-9.4,4.2-9.4,9.4S51.1,62.4,56.3,62.4z
		 M56.3,47.8c2.9,0,5.2,2.3,5.2,5.2s-2.3,5.2-5.2,5.2c-2.9,0-5.2-2.3-5.2-5.2S53.4,47.8,56.3,47.8z"/>
</g>
<path class="st1" d="M119.5,27.4h-11.9c-3.3,0-6,2.7-6,6v83.8v11.5v0.6c0,3.3,2.7,6,6,6h11.9c3.3,0,6-2.7,6-6v-0.6v-11.5V33.3
	C125.5,30.1,122.8,27.4,119.5,27.4z M121.5,129.1c0,1.1-0.9,2-2,2h-11.9c-1.1,0-2-0.9-2-2v-0.6v-11.5V33.3c0-1.1,0.9-2,2-2h11.9
	c1.1,0,2,0.9,2,2v4h-6c-1.1,0-2,0.9-2,2s0.9,2,2,2h6v4h-2c-1.1,0-2,0.9-2,2c0,1.1,0.9,2,2,2h2v4h-6c-1.1,0-2,0.9-2,2
	c0,1.1,0.9,2,2,2h6v4h-2c-1.1,0-2,0.9-2,2c0,1.1,0.9,2,2,2h2v4h-6c-1.1,0-2,0.9-2,2c0,1.1,0.9,2,2,2h6v4h-2c-1.1,0-2,0.9-2,2
	c0,1.1,0.9,2,2,2h2v4h-6c-1.1,0-2,0.9-2,2c0,1.1,0.9,2,2,2h6v4h-2c-1.1,0-2,0.9-2,2s0.9,2,2,2h2v4h-6c-1.1,0-2,0.9-2,2s0.9,2,2,2h6
	v4h-2c-1.1,0-2,0.9-2,2c0,1.1,0.9,2,2,2h2v4h-6c-1.1,0-2,0.9-2,2c0,1.1,0.9,2,2,2h6v7.8V129.1z"/>
</svg>
