<?xml version="1.0" encoding="utf-8"?>
<!-- Generator: Adobe Illustrator 24.1.0, SVG Export Plug-In . SVG Version: 6.00 Build 0)  -->
<svg version="1.1" id="Warstwa_1" xmlns="http://www.w3.org/2000/svg" xmlns:xlink="http://www.w3.org/1999/xlink" x="0px" y="0px"
	 viewBox="0 0 150 150" style="enable-background:new 0 0 150 150;" xml:space="preserve">
<style type="text/css">
	.st0{fill:#CBEED6;}
	.st1{fill:#19B432;}
</style>
<rect x="52.6" y="44.5" class="st0" width="76.8" height="73.5"/>
<g id="_x30_31---Plans">
	<path id="Shape_4_" class="st1" d="M139.3,30.2H42.7c-1.3-9.6-9.7-16.5-19.4-15.9S6.2,22.8,6.1,32.5v85c0,0,0,0.1,0,0.1
		c0,0.2,0,0.3,0,0.5c0.5,10.1,8.9,17.9,19,17.8h114.2c2.5,0,4.6-2.1,4.6-4.6V34.8C143.9,32.2,141.8,30.2,139.3,30.2z M10.7,32.5
		c0-7.6,6.2-13.8,13.8-13.8s13.8,6.2,13.8,13.8v72.8c-3.4-3.8-8.2-6.1-13.3-6.2s-10.1,1.9-13.6,5.6c-0.2,0.2-0.4,0.5-0.6,0.7
		L10.7,32.5z M139.3,131.2H25.1c-7.6,0.1-14-5.8-14.4-13.4c-0.1-4.9,2.5-9.5,6.7-12c4.2-2.5,9.5-2.6,13.8-0.2
		c4.3,2.4,7,6.9,7.1,11.8c0,1.3,1,2.3,2.3,2.3s2.3-1,2.3-2.3V34.8h96.5V131.2z"/>
	<path id="Shape_3_" class="st1" d="M54.3,119.7h73.5c2.5,0,4.6-2.1,4.6-4.6V46.2c0-2.5-2.1-4.6-4.6-4.6H54.3
		c-2.5,0-4.6,2.1-4.6,4.6v68.9C49.7,117.7,51.8,119.7,54.3,119.7z M91.1,46.2v18.4H72.7c-1.3,0-2.3,1-2.3,2.3s1,2.3,2.3,2.3h29.9
		c1.3,0,2.3-1,2.3-2.3s-1-2.3-2.3-2.3h-6.9V46.2h32.2v18.4h-11.5c-1.3,0-2.3,1-2.3,2.3s1,2.3,2.3,2.3h11.5v23h-4.6
		c-1.3,0-2.3,1-2.3,2.3c0,1.3,1,2.3,2.3,2.3h4.6v18.4H91.1V96.8h18.4c1.3,0,2.3-1,2.3-2.3c0-1.3-1-2.3-2.3-2.3H79.6
		c-1.3,0-2.3,1-2.3,2.3c0,1.3,1,2.3,2.3,2.3h6.9v18.4H54.3V96.8h11.5c1.3,0,2.3-1,2.3-2.3c0-1.3-1-2.3-2.3-2.3H54.3v-23h4.6
		c1.3,0,2.3-1,2.3-2.3s-1-2.3-2.3-2.3h-4.6V46.2H91.1z"/>
</g>
</svg>
