<svg xmlns="http://www.w3.org/2000/svg" width="25.109" height="25.108" viewBox="0 0 25.109 25.108">
  <path id="Path_23" data-name="Path 23" d="M71.431,0H53.678A3.682,3.682,0,0,0,50,3.678V21.431a3.682,3.682,0,0,0,3.678,3.678H71.431a3.682,3.682,0,0,0,3.678-3.678V3.678A3.682,3.682,0,0,0,71.431,0ZM58.876,19.91H55.934V9.612h2.942Zm0-11.77H55.934V5.2h2.942Zm10.3,11.77H66.232V14.026a1.471,1.471,0,1,0-2.942,0V19.91H60.348V9.612H63.29v.554A6.373,6.373,0,0,1,65.5,9.612a3.851,3.851,0,0,1,3.678,3.908Z" transform="translate(-50)" fill="#0274b3"/>
</svg>
