<?xml version="1.0" encoding="utf-8"?>
<!-- Generator: Adobe Illustrator 24.1.0, SVG Export Plug-In . SVG Version: 6.00 Build 0)  -->
<svg version="1.1" id="Warstwa_1" xmlns="http://www.w3.org/2000/svg" xmlns:xlink="http://www.w3.org/1999/xlink" x="0px" y="0px"
	 viewBox="0 0 150 150" style="enable-background:new 0 0 150 150;" xml:space="preserve">
<style type="text/css">
	.st0{fill:#CBEED6;}
	.st1{fill:#19B432;}
</style>
<rect x="52.6" y="44.5" class="st0" width="76.8" height="73.5"/>
<g id="_x30_31---Plans">
	<path id="Shape_4_" class="st1" d="M139.3,30.2H42.7c-1.3-9.6-9.7-16.5-19.4-15.9S6.2,22.8,6.1,32.5v85v0.1c0,0.2,0,0.3,0,0.5
		c0.5,10.1,8.9,17.9,19,17.8h114.2c2.5,0,4.6-2.1,4.6-4.6V34.8C143.9,32.2,141.8,30.2,139.3,30.2z M10.7,32.5
		c0-7.6,6.2-13.8,13.8-13.8s13.8,6.2,13.8,13.8v72.8c-3.4-3.8-8.2-6.1-13.3-6.2s-10.1,1.9-13.6,5.6c-0.2,0.2-0.4,0.5-0.6,0.7
		L10.7,32.5z M139.3,131.2H25.1c-7.6,0.1-14-5.8-14.4-13.4c-0.1-4.9,2.5-9.5,6.7-12s9.5-2.6,13.8-0.2s7,6.9,7.1,11.8
		c0,1.3,1,2.3,2.3,2.3s2.3-1,2.3-2.3V34.8h96.5L139.3,131.2L139.3,131.2z"/>
	<path class="st1" d="M127.8,41.6H54.3c-2.5,0-4.6,2.1-4.6,4.6v68.9c0,2.6,2.1,4.6,4.6,4.6h73.5c2.5,0,4.6-2.1,4.6-4.6V46.2
		C132.4,43.7,130.3,41.6,127.8,41.6z M127.9,46.2v31.1l-14-26.5l8.7-4.6C122.6,46.2,127.9,46.2,127.9,46.2z M112.8,46.2l-34,18
		l-9.5-18C69.3,46.2,112.8,46.2,112.8,46.2z M54.3,46.2H64l28.2,53.2l-29.8,15.8h-8.1V46.2z M100.5,115.2H72.2l22.1-11.7
		L100.5,115.2z M105.7,115.2L80.9,68.3L109.8,53l18.1,34.1v28.1H105.7z"/>
</g>
</svg>
