<?xml version="1.0" encoding="utf-8"?>
<!-- Generator: Adobe Illustrator 24.1.0, SVG Export Plug-In . SVG Version: 6.00 Build 0)  -->
<svg version="1.1" id="Warstwa_1" xmlns="http://www.w3.org/2000/svg" xmlns:xlink="http://www.w3.org/1999/xlink" x="0px" y="0px"
	 viewBox="0 0 150 150" style="enable-background:new 0 0 150 150;" xml:space="preserve">
<style type="text/css">
	.st0{fill:#19B432;}
	.st1{fill:#CBEED6;}
</style>
<polygon class="st0" points="39.3,52.9 75,116.2 110.7,52.9 "/>
<circle class="st1" cx="75" cy="73" r="11.5"/>
<g>
	<path class="st0" d="M133,115.1c-1,0-1.9,0.8-1.9,1.9v12.1H119c-1,0-1.9,0.8-1.9,1.9c0,1,0.8,1.9,1.9,1.9h14c1,0,1.9-0.8,1.9-1.9
		v-14C134.9,116,134,115.1,133,115.1z"/>
	<path class="st0" d="M31,129.1H18.9V117c0-1-0.8-1.9-1.9-1.9s-1.9,0.8-1.9,1.9v14c0,1,0.8,1.9,1.9,1.9h14c1,0,1.9-0.8,1.9-1.9
		C32.9,130,32,129.1,31,129.1z"/>
	<path class="st0" d="M119,16.9h12.1V29c0,1,0.8,1.9,1.9,1.9c1,0,1.9-0.8,1.9-1.9V15c0-1-0.8-1.9-1.9-1.9h-14c-1,0-1.9,0.8-1.9,1.9
		S118,16.9,119,16.9z"/>
	<path class="st0" d="M17,30.9c1,0,1.9-0.8,1.9-1.9V16.9H31c1,0,1.9-0.8,1.9-1.9S32,13.1,31,13.1H17c-1,0-1.9,0.8-1.9,1.9v14
		C15.1,30,16,30.9,17,30.9z"/>
	<path class="st0" d="M137,71.1h-2.2c-0.5-15.3-6.6-29.6-17.5-40.5s-25.2-17-40.5-17.5V11c0-1-0.8-1.9-1.9-1.9S73.1,10,73.1,11v2.2
		c-15.3,0.5-29.6,6.6-40.5,17.5s-17,25.2-17.5,40.5H13c-1,0-1.9,0.8-1.9,1.9s0.8,1.9,1.9,1.9h2.2c0.5,15.3,6.6,29.6,17.5,40.5
		s25.2,17,40.5,17.5v2.2c0,1,0.8,1.9,1.9,1.9s1.9-0.8,1.9-1.9v-2.2c15.3-0.5,29.6-6.6,40.5-17.5s17-25.2,17.5-40.5h2.2
		c1,0,1.9-0.8,1.9-1.9S138,71.1,137,71.1z M114.7,112.7c-10.2,10.2-23.5,15.9-37.8,16.4V127c0-1-0.8-1.9-1.9-1.9s-1.9,0.8-1.9,1.9
		v2.1c-14.3-0.5-27.7-6.2-37.8-16.4c-10.2-10.2-15.9-23.5-16.4-37.8H21c1,0,1.9-0.8,1.9-1.9S22,71.1,21,71.1h-2.1
		c0.5-14.3,6.2-27.7,16.4-37.8c10.2-10.2,23.5-15.9,37.8-16.4V19c0,1,0.8,1.9,1.9,1.9s1.9-0.8,1.9-1.9v-2.1
		c14.3,0.5,27.7,6.2,37.8,16.4c10.2,10.2,15.9,23.5,16.4,37.8H129c-1,0-1.9,0.8-1.9,1.9s0.8,1.9,1.9,1.9h2.1
		C130.6,89.2,124.8,102.5,114.7,112.7z"/>
</g>
</svg>
