<?xml version="1.0" encoding="utf-8"?>
<!-- Generator: Adobe Illustrator 24.1.0, SVG Export Plug-In . SVG Version: 6.00 Build 0)  -->
<svg version="1.1" id="Warstwa_1" xmlns="http://www.w3.org/2000/svg" xmlns:xlink="http://www.w3.org/1999/xlink" x="0px" y="0px"
	 viewBox="0 0 29 29" style="enable-background:new 0 0 29 29;" xml:space="preserve">
<style type="text/css">
	.st0{fill:#0BB944;}
	.st1{fill:none;}
	.st2{fill:none;stroke:#0BB944;stroke-width:2;}
</style>
<g id="Group_5" transform="translate(-233.28 -127.249)">
	<path id="Path_20" class="st0" d="M246.2,146.9c0.5-0.4,0.6-1.2,0.1-1.7c0,0-0.1-0.1-0.1-0.1c-0.4-0.4-0.9-0.9-1.3-1.3
		c-0.1-0.1-0.1-0.2-0.1-0.4c0,0,0,0,0,0c0.2-0.3,0.3-0.6,0.4-0.8c0.8-1.2,1.8-2.3,2.9-3.2c0.6-0.5,1.2-0.9,1.8-1.2
		c0.1-0.1,0.3,0,0.3,0.1c0.4,0.4,0.8,0.8,1.3,1.3c0.4,0.5,1.2,0.6,1.7,0.2c0.1,0,0.1-0.1,0.2-0.2c0.3-0.3,0.7-0.7,1-1s0.7-0.7,1-1
		c0.5-0.4,0.6-1.2,0.1-1.7c0,0-0.1-0.1-0.1-0.1c-0.4-0.4-0.9-0.8-1.3-1.3c-0.4-0.4-0.9-0.6-1.4-0.7c-0.9,0-1.8,0.1-2.6,0.5
		c-1.7,0.6-3.3,1.6-4.6,2.8c-1.9,1.6-3.4,3.5-4.5,5.7c-0.5,1-0.8,2.1-0.9,3.2c-0.1,0.7,0.2,1.5,0.8,2c0.4,0.4,0.8,0.8,1.2,1.2
		c0.4,0.5,1.2,0.6,1.7,0.1c0.1,0,0.1-0.1,0.1-0.1C244.8,148.3,245.5,147.6,246.2,146.9z"/>
</g>
<g id="Ellipse_1">
	<circle class="st1" cx="14.5" cy="14.5" r="14.5"/>
	<circle class="st2" cx="14.5" cy="14.5" r="13.5"/>
</g>
</svg>
